<?xml version="1.0" standalone="no"?>
<!DOCTYPE svg PUBLIC "-//W3C//DTD SVG 20010904//EN"
 "http://www.w3.org/TR/2001/REC-SVG-20010904/DTD/svg10.dtd">
<svg version="1.0" xmlns="http://www.w3.org/2000/svg"
 width="344.000000pt" height="344.000000pt" viewBox="0 0 344.000000 344.000000"
 preserveAspectRatio="xMidYMid meet">
<metadata>
Created by potrace 1.15, written by Peter Selinger 2001-2017
</metadata>
<g transform="translate(0.000000,344.000000) scale(0.100000,-0.100000)"
fill="#000000" stroke="none">
<path d="M1475 2994 c-381 -71 -730 -273 -1053 -609 -185 -191 -374 -445 -407
-545 -13 -39 -16 -74 -13 -144 5 -105 20 -141 113 -271 382 -534 830 -865
1315 -971 68 -15 127 -19 290 -19 163 0 222 4 290 19 262 57 506 176 750 364
234 181 599 606 660 769 27 73 27 193 0 266 -61 163 -426 588 -660 769 -240
185 -486 306 -741 363 -106 24 -436 30 -544 9z m505 -124 c312 -64 613 -237
903 -519 43 -42 97 -98 119 -124 l41 -49 -84 54 c-466 301 -940 437 -1380 400
-368 -32 -709 -154 -1073 -384 l-108 -68 40 47 c106 125 302 298 451 397 356
237 727 320 1091 246z m52 -379 c76 -15 111 -28 154 -57 181 -120 312 -307
364 -518 19 -77 22 -109 18 -225 -4 -113 -10 -151 -32 -221 -153 -473 -640
-714 -1110 -550 -221 76 -423 276 -505 500 -56 153 -68 347 -30 501 51 207
182 393 362 512 56 37 122 56 268 77 105 15 400 4 511 -19z m-1062 -148 c-142
-183 -208 -357 -217 -573 -7 -150 6 -240 51 -373 47 -136 113 -243 221 -353
183 -187 389 -280 645 -291 150 -7 240 6 373 51 144 49 244 113 362 231 118
118 182 218 231 362 45 133 58 223 51 373 -9 216 -75 390 -217 573 -21 26 -19
26 75 -18 208 -96 430 -237 639 -405 122 -98 125 -101 137 -153 21 -99 -15
-174 -192 -402 -335 -430 -738 -709 -1152 -797 -144 -30 -370 -30 -514 0 -450
96 -877 410 -1235 908 -108 149 -130 209 -107 297 11 44 21 55 128 141 209
169 361 267 581 378 85 43 156 78 158 78 2 0 -6 -12 -18 -27z"/>
<path d="M1603 2469 c-96 -14 -185 -49 -202 -80 -13 -24 -13 -29 3 -54 21 -31
38 -31 171 5 69 18 96 20 199 15 129 -6 146 -1 146 44 0 46 -19 60 -95 71 -81
11 -136 11 -222 -1z"/>
<path d="M2054 2370 c-23 -9 -38 -48 -28 -73 5 -15 95 -86 134 -107 33 -18 74
7 78 47 4 37 -20 65 -97 114 -48 31 -54 32 -87 19z"/>
<path d="M1182 2258 c-7 -7 -12 -26 -12 -43 0 -24 12 -42 53 -83 57 -56 91
-66 120 -34 30 33 21 64 -36 120 -54 54 -97 68 -125 40z"/>
<path d="M2292 2098 c-16 -16 -15 -63 2 -96 32 -62 58 -162 63 -247 12 -198
-81 -409 -234 -530 -32 -25 -84 -59 -117 -75 -77 -39 -86 -47 -86 -80 0 -30
27 -60 55 -60 33 0 161 70 228 125 197 162 302 426 269 675 -14 99 -64 252
-93 281 -21 21 -69 25 -87 7z"/>
<path d="M1036 2034 c-9 -8 -16 -29 -16 -45 0 -34 28 -55 115 -84 53 -18 55
-18 75 0 12 11 20 31 20 52 0 32 -3 35 -66 63 -74 34 -105 37 -128 14z"/>
<path d="M1639 2037 c-150 -43 -243 -163 -244 -317 0 -66 5 -85 33 -142 58
-118 161 -182 292 -182 131 0 234 64 292 182 80 162 15 353 -145 432 -73 36
-160 46 -228 27z m197 -123 c30 -18 60 -48 79 -78 25 -42 30 -59 30 -116 0
-57 -5 -74 -30 -116 -19 -30 -49 -60 -79 -79 -42 -25 -59 -30 -116 -30 -57 0
-74 5 -116 30 -157 97 -147 316 18 399 71 37 145 33 214 -10z"/>
<path d="M980 1760 c-11 -11 -20 -29 -20 -40 0 -42 34 -60 115 -60 81 0 115
18 115 60 0 42 -34 60 -115 60 -62 0 -79 -4 -95 -20z"/>
<path d="M1091 1531 c-72 -30 -91 -56 -73 -96 17 -36 53 -41 120 -15 31 13 65
30 75 38 24 21 22 67 -5 86 -29 21 -41 19 -117 -13z"/>
<path d="M1222 1307 c-40 -40 -52 -60 -52 -83 0 -38 16 -54 55 -54 24 0 42 12
83 53 56 57 66 91 34 120 -33 30 -64 21 -120 -36z"/>
<path d="M1420 1164 c-17 -36 -30 -76 -30 -89 0 -32 25 -55 61 -55 34 0 55 28
84 115 18 53 18 55 0 75 -11 12 -31 20 -52 20 -32 0 -35 -3 -63 -66z"/>
<path d="M1680 1170 c-16 -16 -20 -33 -20 -95 0 -81 18 -115 60 -115 42 0 60
34 60 115 0 81 -18 115 -60 115 -11 0 -29 -9 -40 -20z"/>
</g>
</svg>
